# xmcd CD database file
#
# Track frame offsets:
#	150
#	44293
#	73709
#	116612
#	144605
#	190047
#
# Disc length: 3044 seconds
#
# Revision: 0
# Processed by: cddbd v1.5.2PL0 Copyright (c) Steve Scherf et al.
# Submitted via: CDex 1.51
#
DISCID=530be206
DTITLE=Medwyn Goodall - Island Bliss
DYEAR=2007
DGENRE=New Age
TTITLE0=Amulet
TTITLE1=Sungrass
TTITLE2=Totem
TTITLE3=Shadows Of The Mind
TTITLE4=Goddess Power
TTITLE5=Topaz
EXTD=YEAR: 2007
EXTT0=
EXTT1=
EXTT2=
EXTT3=
EXTT4=
EXTT5=
PLAYORDER=
